<svg width="1026" height="1026" viewBox="0 0 1026 1026" fill="none" xmlns="http://www.w3.org/2000/svg">
<path d="M157.088 393.304L513.044 156L869 393.304" stroke="#131415" stroke-dasharray="26 26"/>
<path d="M157.5 393.934L167.848 400.833L168.125 400.417L190.375 415.25L190.098 415.666L212.348 430.499L212.625 430.083L234.875 444.917L234.598 445.333L256.848 460.166L257.125 459.75L279.375 474.583L279.098 474.999L301.348 489.833L301.625 489.417L323.875 504.25L323.598 504.666L345.848 519.499L346.125 519.083L368.375 533.917L368.098 534.333L390.348 549.166L390.625 548.75L412.875 563.583L412.598 563.999L434.848 578.833L435.125 578.417L457.375 593.25L457.098 593.666L479.348 608.499L479.625 608.083L501.875 622.917L501.598 623.333L512.5 630.601V642.2H513V665.933H512.5V689.667H513V713.4H512.5V737.133H513V760.867H512.5V784.6H513V808.333H512.5V832.067H513V855.8H512.5V866.732L502.152 859.834L501.875 860.25L479.625 845.417L479.902 845.001L457.652 830.167L457.375 830.583L435.125 815.75L435.402 815.334L413.152 800.501L412.875 800.917L390.625 786.083L390.902 785.667L368.652 770.834L368.375 771.25L346.125 756.417L346.402 756.001L324.152 741.167L323.875 741.583L301.625 726.75L301.902 726.334L279.652 711.501L279.375 711.917L257.125 697.083L257.402 696.667L235.152 681.834L234.875 682.25L212.625 667.417L212.902 667.001L190.652 652.167L190.375 652.583L168.125 637.75L168.402 637.334L157.5 630.066V618.467H157V594.733H157.5V571H157V547.267H157.5V523.533H157V499.8H157.5V476.067H157V452.333H157.5V428.6H157V404.867H157.5V393.934Z" stroke="#131415" stroke-dasharray="26 26"/>
<path d="M513 867.667L869 630.333V393L513 630.333" stroke="#131415" stroke-dasharray="26 26"/>
</svg>
